<svg xmlns="http://www.w3.org/2000/svg" xmlns:xlink="http://www.w3.org/1999/xlink" width="1080" zoomAndPan="magnify" viewBox="0 0 810 809.999993" height="1080" preserveAspectRatio="xMidYMid meet" version="1.0"><defs><g/><clipPath id="b9d9fda373"><path d="M 26 133 L 666 133 L 666 624 L 26 624 Z M 26 133 " clip-rule="nonzero"/></clipPath><clipPath id="f8bd5fcda7"><path d="M 32.398438 82.273438 L 671.199219 98.296875 L 656.019531 703.355469 L 17.222656 687.332031 Z M 32.398438 82.273438 " clip-rule="nonzero"/></clipPath><clipPath id="889df3294a"><path d="M 32.398438 82.273438 L 671.199219 98.296875 L 656.019531 703.355469 L 17.222656 687.332031 Z M 32.398438 82.273438 " clip-rule="nonzero"/></clipPath></defs><g clip-path="url(#b9d9fda373)"><g clip-path="url(#f8bd5fcda7)"><g clip-path="url(#889df3294a)"><path fill="#00bf63" d="M 525.648438 202.550781 C 224.628906 193.644531 59.488281 330.144531 38.359375 620.765625 C 38.09375 624.414062 32.738281 624.480469 32.320312 620.84375 C 21.273438 525.445312 26.046875 438.871094 52.0625 364.164062 C 137.9375 117.59375 442.523438 92.605469 656.082031 176.679688 C 666.726562 180.871094 668.550781 194.78125 659.441406 201.703125 C 487.949219 331.914062 501.628906 699.390625 96.410156 530.117188 C 165.304688 333.097656 299.417969 213.308594 525.648438 202.550781 " fill-opacity="1" fill-rule="evenodd"/></g></g></g><g fill="#00bf63" fill-opacity="1"><g transform="translate(228.332805, 593.077308)"><g><path d="M 123.199219 9.449219 C 195.378906 9.449219 241.863281 -26.453125 241.863281 -86.917969 L 241.863281 -272.09375 L 143.605469 -272.09375 L 143.605469 -91.832031 C 143.605469 -75.582031 135.292969 -66.132812 121.308594 -66.132812 C 104.304688 -66.132812 91.832031 -80.117188 87.675781 -103.925781 L 3.777344 -78.226562 C 10.203125 -23.050781 52.152344 9.449219 123.199219 9.449219 Z M 123.199219 9.449219 "/></g></g></g><g fill="#00bf63" fill-opacity="1"><g transform="translate(485.251308, 593.077308)"><g><path d="M 0 0 L 101.65625 0 L 112.238281 -41.570312 L 190.089844 -41.570312 L 200.671875 0 L 303.082031 0 L 212.007812 -272.09375 L 91.078125 -272.09375 Z M 126.222656 -105.816406 L 151.164062 -200.671875 L 151.917969 -200.671875 L 176.105469 -105.816406 Z M 126.222656 -105.816406 "/></g></g></g><g fill="#f8fdff" fill-opacity="1"><g transform="translate(192.80429, 586.690457)"><g><path d="M 123.199219 9.449219 C 195.378906 9.449219 241.863281 -26.453125 241.863281 -86.917969 L 241.863281 -272.09375 L 143.605469 -272.09375 L 143.605469 -91.832031 C 143.605469 -75.582031 135.292969 -66.132812 121.308594 -66.132812 C 104.304688 -66.132812 91.832031 -80.117188 87.675781 -103.925781 L 3.777344 -78.226562 C 10.203125 -23.050781 52.152344 9.449219 123.199219 9.449219 Z M 123.199219 9.449219 "/></g></g></g></svg>